<svg height="100%" width="100%" id="svg" viewBox="0 0 1440 600" xmlns="http://www.w3.org/2000/svg" class="transition duration-300 ease-in-out delay-150"><defs><linearGradient id="gradient"><stop offset="5%" stop-color="#2c4b7f88"></stop><stop offset="95%" stop-color="#368b8688"></stop></linearGradient></defs><path d="M 0,600 C 0,600 0,200 0,200 C 49.982103677073155,232.15793438896083 99.96420735414631,264.31586877792165 151,258 C 202.0357926458537,251.68413122207832 254.12527426048797,206.89445927727405 301,179 C 347.87472573951203,151.10554072272595 389.53469560390187,140.1062941129821 436,161 C 482.46530439609813,181.8937058870179 533.735943323905,234.68036427079755 584,246 C 634.264056676095,257.31963572920245 683.5215311004785,227.17224880382776 727,200 C 770.4784688995215,172.82775119617224 808.1779322741812,148.63064051389148 854,156 C 899.8220677258188,163.36935948610852 953.7667398027968,202.30518914060642 1009,220 C 1064.2332601972032,237.69481085939358 1120.7551085146315,234.1486029236829 1174,217 C 1227.2448914853685,199.8513970763171 1277.2128261386767,169.10039916466204 1321,164 C 1364.7871738613233,158.89960083533796 1402.3935869306615,179.449800417669 1440,200 C 1440,200 1440,600 1440,600 Z" stroke="none" stroke-width="0" fill="url(#gradient)" class="transition-all duration-300 ease-in-out delay-150" transform="rotate(-180 720 300)"></path><defs><linearGradient id="gradient"><stop offset="5%" stop-color="#2c4b7fff"></stop><stop offset="95%" stop-color="#368b86ff"></stop></linearGradient></defs><path d="M 0,600 C 0,600 0,400 0,400 C 48.6155727087684,412.17049089323007 97.2311454175368,424.3409817864601 148,418 C 198.7688545824632,411.6590182135399 251.69099103862118,386.80656374738965 299,389 C 346.3090089613788,391.19343625261035 388.00489042797864,420.4327632239816 441,443 C 493.99510957202136,465.5672367760184 558.2894472494646,481.462383356684 601,474 C 643.7105527505354,466.537616643316 664.8373205741627,435.7177033492824 714,415 C 763.1626794258373,394.2822966507176 840.3612704538847,383.66680324618676 886,390 C 931.6387295461153,396.33319675381324 945.717597610299,419.6150836659706 986,409 C 1026.282402389701,398.3849163340294 1092.7683391049195,353.872862089931 1142,337 C 1191.2316608950805,320.127137910069 1223.209045970023,330.8934679743054 1270,346 C 1316.790954029977,361.1065320256946 1378.3954770149885,380.5532660128473 1440,400 C 1440,400 1440,600 1440,600 Z" stroke="none" stroke-width="0" fill="url(#gradient)" class="transition-all duration-300 ease-in-out delay-150" transform="rotate(-180 720 300)"></path></svg>